<svg width="293" height="109" viewBox="0 0 293 109" fill="none" xmlns="http://www.w3.org/2000/svg">
<path d="M92.7393 88H88.9609L93.8686 73.4545H98.549L103.457 88H99.6783L96.2621 77.1193H96.1484L92.7393 88ZM92.2351 82.2756H100.133V84.946H92.2351V82.2756ZM113.885 78.206C113.804 77.9077 113.686 77.6449 113.529 77.4176C113.373 77.1856 113.181 76.9891 112.954 76.8281C112.727 76.6671 112.467 76.5464 112.173 76.4659C111.879 76.3807 111.557 76.3381 111.207 76.3381C110.502 76.3381 109.891 76.5085 109.375 76.8494C108.863 77.1903 108.468 77.6875 108.189 78.3409C107.909 78.9896 107.77 79.7779 107.77 80.706C107.77 81.6387 107.904 82.4342 108.174 83.0923C108.444 83.7505 108.835 84.2524 109.346 84.598C109.858 84.9437 110.478 85.1165 111.207 85.1165C111.851 85.1165 112.395 85.0123 112.841 84.804C113.29 84.5909 113.631 84.2902 113.863 83.902C114.095 83.5137 114.211 83.0568 114.211 82.5312L114.865 82.6094H111.328V80.0455H117.599V81.9702C117.599 83.2723 117.322 84.3873 116.768 85.3153C116.219 86.2434 115.461 86.956 114.495 87.4531C113.534 87.9503 112.429 88.1989 111.179 88.1989C109.791 88.1989 108.572 87.8982 107.521 87.2969C106.47 86.6955 105.651 85.8385 105.064 84.7259C104.476 83.6084 104.183 82.2827 104.183 80.7486C104.183 79.5554 104.36 78.4972 104.716 77.5739C105.071 76.6458 105.565 75.8598 106.2 75.2159C106.839 74.572 107.578 74.0843 108.416 73.7528C109.259 73.4214 110.165 73.2557 111.136 73.2557C111.979 73.2557 112.762 73.3764 113.487 73.6179C114.216 73.8594 114.86 74.2003 115.419 74.6406C115.982 75.081 116.439 75.6042 116.789 76.2102C117.14 76.8163 117.358 77.4815 117.443 78.206H113.885ZM119.671 88V73.4545H125.68C126.769 73.4545 127.709 73.651 128.499 74.044C129.295 74.4323 129.908 74.991 130.339 75.7202C130.77 76.4446 130.985 77.304 130.985 78.2983C130.985 79.3068 130.765 80.1638 130.325 80.8693C129.884 81.5701 129.259 82.1051 128.45 82.4744C127.64 82.839 126.681 83.0213 125.573 83.0213H121.773V80.2514H124.92C125.45 80.2514 125.893 80.1828 126.248 80.0455C126.608 79.9034 126.88 79.6903 127.065 79.4062C127.249 79.1174 127.342 78.7481 127.342 78.2983C127.342 77.8485 127.249 77.4768 127.065 77.1832C126.88 76.8849 126.608 76.6624 126.248 76.5156C125.888 76.3641 125.445 76.2884 124.92 76.2884H123.187V88H119.671ZM127.86 81.3523L131.482 88H127.647L124.096 81.3523H127.86ZM146.642 80.7273C146.642 82.3277 146.334 83.6842 145.719 84.7969C145.103 85.9096 144.27 86.7547 143.219 87.3324C142.172 87.91 140.998 88.1989 139.696 88.1989C138.389 88.1989 137.213 87.9077 136.166 87.3253C135.12 86.7429 134.289 85.8977 133.673 84.7898C133.062 83.6771 132.757 82.3229 132.757 80.7273C132.757 79.1269 133.062 77.7704 133.673 76.6577C134.289 75.545 135.12 74.6998 136.166 74.1222C137.213 73.5445 138.389 73.2557 139.696 73.2557C140.998 73.2557 142.172 73.5445 143.219 74.1222C144.27 74.6998 145.103 75.545 145.719 76.6577C146.334 77.7704 146.642 79.1269 146.642 80.7273ZM143.048 80.7273C143.048 79.7803 142.913 78.9801 142.643 78.3267C142.378 77.6733 141.995 77.1785 141.493 76.8423C140.996 76.5062 140.397 76.3381 139.696 76.3381C139 76.3381 138.401 76.5062 137.899 76.8423C137.397 77.1785 137.011 77.6733 136.741 78.3267C136.476 78.9801 136.344 79.7803 136.344 80.7273C136.344 81.6742 136.476 82.4744 136.741 83.1278C137.011 83.7812 137.397 84.276 137.899 84.6122C138.401 84.9484 139 85.1165 139.696 85.1165C140.397 85.1165 140.996 84.9484 141.493 84.6122C141.995 84.276 142.378 83.7812 142.643 83.1278C142.913 82.4744 143.048 81.6742 143.048 80.7273ZM157.494 73.4545H161.003V82.8366C161.003 83.9209 160.745 84.8655 160.229 85.6705C159.713 86.4706 158.993 87.0909 158.07 87.5312C157.146 87.9669 156.074 88.1847 154.852 88.1847C153.616 88.1847 152.537 87.9669 151.614 87.5312C150.69 87.0909 149.973 86.4706 149.462 85.6705C148.95 84.8655 148.695 83.9209 148.695 82.8366V73.4545H152.21V82.5312C152.21 83.0331 152.319 83.4806 152.537 83.8736C152.759 84.2666 153.07 84.5743 153.467 84.7969C153.865 85.0194 154.327 85.1307 154.852 85.1307C155.378 85.1307 155.837 85.0194 156.23 84.7969C156.628 84.5743 156.938 84.2666 157.161 83.8736C157.383 83.4806 157.494 83.0331 157.494 82.5312V73.4545ZM175.586 73.4545V88H172.603L166.814 79.6051H166.722V88H163.206V73.4545H166.232L171.956 81.8352H172.077V73.4545H175.586ZM183.173 88H177.796V73.4545H183.165C184.647 73.4545 185.924 73.7457 186.994 74.3281C188.068 74.9058 188.897 75.7391 189.479 76.8281C190.062 77.9124 190.353 79.2098 190.353 80.7202C190.353 82.2353 190.062 83.5374 189.479 84.6264C188.902 85.7154 188.076 86.5511 187.001 87.1335C185.926 87.7112 184.65 88 183.173 88ZM181.312 85.0028H183.038C183.852 85.0028 184.541 84.8655 185.104 84.5909C185.673 84.3116 186.101 83.8594 186.39 83.2344C186.683 82.6046 186.83 81.7666 186.83 80.7202C186.83 79.6738 186.683 78.8404 186.39 78.2202C186.096 77.5952 185.663 77.1454 185.09 76.8707C184.522 76.5914 183.821 76.4517 182.988 76.4517H181.312V85.0028ZM200.268 77.8153C200.22 77.2945 200.01 76.8897 199.636 76.6009C199.266 76.3073 198.738 76.1605 198.052 76.1605C197.597 76.1605 197.219 76.2197 196.915 76.3381C196.612 76.4564 196.385 76.6198 196.234 76.8281C196.082 77.0317 196.004 77.2661 195.999 77.5312C195.99 77.7491 196.032 77.9408 196.127 78.1065C196.227 78.2723 196.369 78.419 196.553 78.5469C196.743 78.67 196.97 78.7789 197.235 78.8736C197.5 78.9683 197.799 79.0511 198.13 79.1222L199.38 79.4062C200.1 79.5625 200.734 79.7708 201.283 80.0312C201.837 80.2917 202.301 80.6018 202.675 80.9616C203.054 81.3215 203.341 81.7358 203.535 82.2045C203.729 82.6733 203.828 83.1989 203.833 83.7812C203.828 84.6998 203.596 85.4882 203.137 86.1463C202.678 86.8045 202.017 87.3087 201.156 87.6591C200.299 88.0095 199.264 88.1847 198.052 88.1847C196.835 88.1847 195.774 88.0024 194.87 87.6378C193.966 87.2732 193.263 86.7192 192.761 85.9759C192.259 85.2325 192.001 84.2926 191.987 83.1562H195.353C195.381 83.625 195.507 84.0156 195.729 84.3281C195.952 84.6406 196.257 84.8774 196.646 85.0384C197.039 85.1993 197.493 85.2798 198.009 85.2798C198.483 85.2798 198.885 85.2159 199.217 85.0881C199.553 84.9602 199.811 84.7827 199.991 84.5554C200.171 84.3281 200.263 84.0677 200.268 83.7741C200.263 83.4995 200.178 83.2652 200.012 83.071C199.846 82.8722 199.591 82.7017 199.245 82.5597C198.904 82.4129 198.469 82.2779 197.938 82.1548L196.418 81.7997C195.159 81.5109 194.167 81.0445 193.442 80.4006C192.718 79.7519 192.358 78.8759 192.363 77.7727C192.358 76.8731 192.6 76.0848 193.087 75.4077C193.575 74.7306 194.25 74.2027 195.112 73.8239C195.973 73.4451 196.956 73.2557 198.059 73.2557C199.186 73.2557 200.164 73.4474 200.992 73.831C201.826 74.2098 202.472 74.7424 202.931 75.429C203.39 76.1155 203.625 76.911 203.634 77.8153H200.268Z" fill="#A7A9AC"/>
<path d="M167.804 51.8683C172.65 46.9164 175.845 40.31 176.535 33.3842C177.484 23.8601 173.663 13.9725 166.563 7.609C155.85 -1.99547 138.686 -2.66415 127.506 6.49654C127.472 6.52466 127.506 6.57686 127.546 6.55879C130.693 4.97043 133.868 3.39813 137.234 2.366C147.463 -0.77257 159.619 1.83789 166.593 10.0026C172.873 17.354 174.132 28.6493 169.623 37.2176C165.113 45.7879 155.128 51.0851 145.559 49.9827C143.333 49.7257 140.82 49.0249 139.488 47.055C137.994 44.8481 138.559 41.7939 139.506 39.4827C141.574 34.4324 145.746 30.6051 149.869 27.0529C153.849 23.6211 163.949 16.4303 160.463 10.0869C159.443 8.2335 157.27 7.37205 155.211 6.93229C146.295 5.03067 136.913 8.57286 129.763 14.2657C127.438 16.1171 125.286 18.1954 122.803 19.836C122.368 20.1231 121.812 20.1834 121.347 19.9484C120.667 19.605 120.709 18.9203 120.773 18.3159C120.952 16.589 121.132 14.862 121.311 13.1371C121.321 13.0408 121.196 12.9946 121.144 13.0749C117.285 18.9062 115.48 26.087 116.13 33.0629C116.79 40.1634 119.987 46.9947 125.003 52.0289C125.326 52.3522 125.669 52.6775 126.1 52.8281C126.91 53.1112 127.835 52.6775 128.357 51.9948C128.882 51.312 129.079 50.4365 129.197 49.5811C129.738 45.6172 128.808 41.6232 128.371 37.6473C127.927 33.581 128.098 29.1392 130.617 25.9023C130.741 25.7436 130.9 25.6131 131.088 25.5368C131.592 25.332 131.878 25.6593 132.123 25.9605C133.641 27.822 135.158 29.6814 136.678 31.5429C136.979 31.9123 137.288 32.2999 137.386 32.7658C137.551 33.5609 137.063 34.328 136.618 35.0067C133.345 40.0068 131.291 45.808 130.687 51.7659C130.525 53.3582 130.503 55.1012 131.433 56.4004C132.111 57.3502 133.196 57.9105 134.263 58.3743C142.992 62.1635 153.498 61.5149 161.697 56.6735C163.935 55.3522 165.985 53.7277 167.804 51.8683ZM136.863 20.9665C137.246 19.4042 138.702 18.3058 140.25 17.7898C142.545 17.0227 146.57 15.9283 148.981 16.1492C149.912 16.2355 151.005 16.9625 150.65 18.0508C150.535 18.4022 150.297 18.6974 150.06 18.9826C148.889 20.3842 147.623 21.7014 146.333 22.9926C145.134 24.1934 144.015 25.4886 142.727 26.595C141.259 27.8561 139.344 26.5569 138.309 25.336C137.557 24.4484 136.939 23.3982 136.796 22.2396C136.74 21.7878 136.768 21.3621 136.863 20.9685V20.9665Z" fill="#055540"/>
</svg>
